<mxfile host="Electron" agent="Mozilla/5.0 (Macintosh; Intel Mac OS X 10_15_7) AppleWebKit/537.36 (KHTML, like Gecko) draw.io/26.0.16 Chrome/132.0.6834.196 Electron/34.2.0 Safari/537.36" version="26.0.16">
  <diagram name="1 oldal" id="_i8NqzAz9s3-DDf1dhZt">
    <mxGraphModel dx="954" dy="726" grid="1" gridSize="10" guides="1" tooltips="1" connect="1" arrows="1" fold="1" page="1" pageScale="1" pageWidth="827" pageHeight="1169" math="0" shadow="0">
      <root>
        <mxCell id="0" />
        <mxCell id="1" parent="0" />
        <mxCell id="2N9eBhZkdExc5sdEcBkC-19" style="edgeStyle=orthogonalEdgeStyle;rounded=0;orthogonalLoop=1;jettySize=auto;html=1;exitX=1;exitY=1;exitDx=0;exitDy=0;exitPerimeter=0;entryX=0;entryY=0.5;entryDx=0;entryDy=0;" edge="1" parent="1" source="2N9eBhZkdExc5sdEcBkC-1" target="2N9eBhZkdExc5sdEcBkC-9">
          <mxGeometry relative="1" as="geometry" />
        </mxCell>
        <mxCell id="2N9eBhZkdExc5sdEcBkC-20" style="edgeStyle=orthogonalEdgeStyle;rounded=0;orthogonalLoop=1;jettySize=auto;html=1;exitX=0;exitY=1;exitDx=0;exitDy=0;exitPerimeter=0;entryX=0.5;entryY=0;entryDx=0;entryDy=0;" edge="1" parent="1" source="2N9eBhZkdExc5sdEcBkC-1" target="2N9eBhZkdExc5sdEcBkC-7">
          <mxGeometry relative="1" as="geometry" />
        </mxCell>
        <mxCell id="2N9eBhZkdExc5sdEcBkC-23" style="edgeStyle=orthogonalEdgeStyle;rounded=0;orthogonalLoop=1;jettySize=auto;html=1;exitX=1;exitY=1;exitDx=0;exitDy=0;exitPerimeter=0;entryX=0.5;entryY=1;entryDx=0;entryDy=0;" edge="1" parent="1" source="2N9eBhZkdExc5sdEcBkC-1" target="2N9eBhZkdExc5sdEcBkC-8">
          <mxGeometry relative="1" as="geometry">
            <mxPoint x="340" y="540" as="targetPoint" />
          </mxGeometry>
        </mxCell>
        <mxCell id="2N9eBhZkdExc5sdEcBkC-29" style="edgeStyle=orthogonalEdgeStyle;rounded=0;orthogonalLoop=1;jettySize=auto;html=1;exitX=0.5;exitY=0.5;exitDx=0;exitDy=0;exitPerimeter=0;" edge="1" parent="1" source="2N9eBhZkdExc5sdEcBkC-1" target="2N9eBhZkdExc5sdEcBkC-11">
          <mxGeometry relative="1" as="geometry" />
        </mxCell>
        <mxCell id="2N9eBhZkdExc5sdEcBkC-1" value="Tanár" style="shape=umlActor;verticalLabelPosition=bottom;verticalAlign=top;html=1;" vertex="1" parent="1">
          <mxGeometry x="80" y="260" width="30" height="60" as="geometry" />
        </mxCell>
        <mxCell id="2N9eBhZkdExc5sdEcBkC-32" style="edgeStyle=orthogonalEdgeStyle;rounded=0;orthogonalLoop=1;jettySize=auto;html=1;exitX=0;exitY=1;exitDx=0;exitDy=0;exitPerimeter=0;" edge="1" parent="1" source="2N9eBhZkdExc5sdEcBkC-2" target="2N9eBhZkdExc5sdEcBkC-15">
          <mxGeometry relative="1" as="geometry" />
        </mxCell>
        <mxCell id="2N9eBhZkdExc5sdEcBkC-33" style="edgeStyle=orthogonalEdgeStyle;rounded=0;orthogonalLoop=1;jettySize=auto;html=1;exitX=0;exitY=1;exitDx=0;exitDy=0;exitPerimeter=0;entryX=0;entryY=0.5;entryDx=0;entryDy=0;" edge="1" parent="1" source="2N9eBhZkdExc5sdEcBkC-2" target="2N9eBhZkdExc5sdEcBkC-8">
          <mxGeometry relative="1" as="geometry">
            <Array as="points">
              <mxPoint x="384" y="168" />
              <mxPoint x="295" y="168" />
              <mxPoint x="295" y="354" />
              <mxPoint x="283" y="354" />
              <mxPoint x="283" y="500" />
            </Array>
          </mxGeometry>
        </mxCell>
        <mxCell id="2N9eBhZkdExc5sdEcBkC-34" style="edgeStyle=orthogonalEdgeStyle;rounded=0;orthogonalLoop=1;jettySize=auto;html=1;exitX=1;exitY=1;exitDx=0;exitDy=0;exitPerimeter=0;entryX=0.5;entryY=0;entryDx=0;entryDy=0;" edge="1" parent="1" source="2N9eBhZkdExc5sdEcBkC-2" target="2N9eBhZkdExc5sdEcBkC-13">
          <mxGeometry relative="1" as="geometry" />
        </mxCell>
        <mxCell id="2N9eBhZkdExc5sdEcBkC-38" style="edgeStyle=orthogonalEdgeStyle;rounded=0;orthogonalLoop=1;jettySize=auto;html=1;exitX=1;exitY=0.3333333333333333;exitDx=0;exitDy=0;exitPerimeter=0;entryX=0;entryY=0.5;entryDx=0;entryDy=0;" edge="1" parent="1" source="2N9eBhZkdExc5sdEcBkC-2" target="2N9eBhZkdExc5sdEcBkC-37">
          <mxGeometry relative="1" as="geometry">
            <Array as="points">
              <mxPoint x="414" y="105" />
            </Array>
          </mxGeometry>
        </mxCell>
        <mxCell id="2N9eBhZkdExc5sdEcBkC-2" value="Admin&lt;div&gt;&lt;br&gt;&lt;/div&gt;" style="shape=umlActor;verticalLabelPosition=bottom;verticalAlign=top;html=1;" vertex="1" parent="1">
          <mxGeometry x="384" y="60" width="30" height="60" as="geometry" />
        </mxCell>
        <mxCell id="2N9eBhZkdExc5sdEcBkC-4" value="Diák" style="shape=umlActor;verticalLabelPosition=bottom;verticalAlign=top;html=1;" vertex="1" parent="1">
          <mxGeometry x="690" y="260" width="30" height="60" as="geometry" />
        </mxCell>
        <mxCell id="2N9eBhZkdExc5sdEcBkC-7" value="Osztály kiválasztása&lt;div&gt;&lt;br&gt;&lt;/div&gt;" style="ellipse;html=1;whiteSpace=wrap;" vertex="1" parent="1">
          <mxGeometry x="190" y="480" width="100" height="60" as="geometry" />
        </mxCell>
        <mxCell id="2N9eBhZkdExc5sdEcBkC-8" value="Tanuló kiválasztása" style="ellipse;html=1;whiteSpace=wrap;" vertex="1" parent="1">
          <mxGeometry x="400" y="470" width="100" height="60" as="geometry" />
        </mxCell>
        <mxCell id="2N9eBhZkdExc5sdEcBkC-9" value="Jegyek megtekintése" style="ellipse;html=1;whiteSpace=wrap;" vertex="1" parent="1">
          <mxGeometry x="320" y="350" width="120" height="65" as="geometry" />
        </mxCell>
        <mxCell id="2N9eBhZkdExc5sdEcBkC-11" value="Jegyek Hozzáadása, módosítása,törlése" style="ellipse;html=1;whiteSpace=wrap;" vertex="1" parent="1">
          <mxGeometry x="510" y="365" width="130" height="90" as="geometry" />
        </mxCell>
        <mxCell id="2N9eBhZkdExc5sdEcBkC-12" value="Tanárok, diákok hozzáadása" style="ellipse;html=1;whiteSpace=wrap;" vertex="1" parent="1">
          <mxGeometry x="240" y="215" width="110" height="65" as="geometry" />
        </mxCell>
        <mxCell id="2N9eBhZkdExc5sdEcBkC-13" value="Szerepek kiosztása" style="ellipse;html=1;whiteSpace=wrap;" vertex="1" parent="1">
          <mxGeometry x="390" y="195" width="120" height="85" as="geometry" />
        </mxCell>
        <mxCell id="2N9eBhZkdExc5sdEcBkC-14" value="Felhasználók kezelése" style="ellipse;html=1;whiteSpace=wrap;" vertex="1" parent="1">
          <mxGeometry x="490" y="150" width="110" height="55" as="geometry" />
        </mxCell>
        <mxCell id="2N9eBhZkdExc5sdEcBkC-15" value="Osztályok kezelése" style="ellipse;html=1;whiteSpace=wrap;" vertex="1" parent="1">
          <mxGeometry x="140" y="130" width="100" height="75" as="geometry" />
        </mxCell>
        <mxCell id="2N9eBhZkdExc5sdEcBkC-17" value="" style="html=1;verticalAlign=bottom;labelBackgroundColor=none;endArrow=block;endFill=1;rounded=0;" edge="1" parent="1">
          <mxGeometry width="160" relative="1" as="geometry">
            <mxPoint x="490" y="370" as="sourcePoint" />
            <mxPoint x="490" y="370" as="targetPoint" />
          </mxGeometry>
        </mxCell>
        <mxCell id="2N9eBhZkdExc5sdEcBkC-31" style="edgeStyle=orthogonalEdgeStyle;rounded=0;orthogonalLoop=1;jettySize=auto;html=1;exitX=0;exitY=1;exitDx=0;exitDy=0;exitPerimeter=0;entryX=0.767;entryY=0.108;entryDx=0;entryDy=0;entryPerimeter=0;" edge="1" parent="1" source="2N9eBhZkdExc5sdEcBkC-4" target="2N9eBhZkdExc5sdEcBkC-9">
          <mxGeometry relative="1" as="geometry">
            <Array as="points">
              <mxPoint x="690" y="330" />
              <mxPoint x="412" y="330" />
            </Array>
          </mxGeometry>
        </mxCell>
        <mxCell id="2N9eBhZkdExc5sdEcBkC-35" style="edgeStyle=orthogonalEdgeStyle;rounded=0;orthogonalLoop=1;jettySize=auto;html=1;exitX=1;exitY=1;exitDx=0;exitDy=0;exitPerimeter=0;entryX=0.382;entryY=0;entryDx=0;entryDy=0;entryPerimeter=0;" edge="1" parent="1" source="2N9eBhZkdExc5sdEcBkC-2" target="2N9eBhZkdExc5sdEcBkC-14">
          <mxGeometry relative="1" as="geometry">
            <Array as="points">
              <mxPoint x="414" y="130" />
              <mxPoint x="532" y="130" />
            </Array>
          </mxGeometry>
        </mxCell>
        <mxCell id="2N9eBhZkdExc5sdEcBkC-36" style="edgeStyle=orthogonalEdgeStyle;rounded=0;orthogonalLoop=1;jettySize=auto;html=1;exitX=0.5;exitY=0;exitDx=0;exitDy=0;entryX=0.4;entryY=-0.031;entryDx=0;entryDy=0;entryPerimeter=0;" edge="1" parent="1" source="2N9eBhZkdExc5sdEcBkC-12" target="2N9eBhZkdExc5sdEcBkC-9">
          <mxGeometry relative="1" as="geometry">
            <Array as="points">
              <mxPoint x="295" y="195" />
              <mxPoint x="370" y="195" />
              <mxPoint x="370" y="348" />
            </Array>
          </mxGeometry>
        </mxCell>
        <mxCell id="2N9eBhZkdExc5sdEcBkC-37" value="Tantárgyak kezelése" style="ellipse;whiteSpace=wrap;html=1;" vertex="1" parent="1">
          <mxGeometry x="530" y="70" width="140" height="70" as="geometry" />
        </mxCell>
      </root>
    </mxGraphModel>
  </diagram>
</mxfile>
